HIERARCHY
ROOT SpineBase
{
  OFFSET 0.000000 0.000000 0.000000
  CHANNELS 6 Xposition Yposition Zposition Zrotation Xrotation Yrotation
  JOINT SpineMid
  {
    OFFSET -0.000000 31.498395 0.000000
    CHANNELS 3 Zrotation Xrotation Yrotation
    JOINT SpineShoulder
    {
      OFFSET -0.067301 23.495305 -0.669677
      CHANNELS 3 Zrotation Xrotation Yrotation
      JOINT Neck
      {
        OFFSET -0.116587 7.794447 -0.562966
        CHANNELS 3 Zrotation Xrotation Yrotation
        JOINT Head
        {
          OFFSET -1.063843 12.502833 1.436343
          CHANNELS 3 Zrotation Xrotation Yrotation
          End Site
          {
            OFFSET 0 0 0
          }
        }
      }
      JOINT ShoulderLeft
      {
        OFFSET -12.012980 -7.468901 -9.080886
        CHANNELS 3 Zrotation Xrotation Yrotation
        JOINT ElbowLeft
        {
          OFFSET -3.767432 -25.346917 -3.556448
          CHANNELS 3 Zrotation Xrotation Yrotation
          JOINT WristLeft
          {
            OFFSET -7.640483 -25.641851 3.233045
            CHANNELS 3 Zrotation Xrotation Yrotation
            JOINT HandLeft
            {
              OFFSET -0.753740 -8.637458 0.280574
              CHANNELS 3 Zrotation Xrotation Yrotation
              JOINT HandTipLeft
              {
                OFFSET -0.222033 -5.257679 -1.161964
                CHANNELS 3 Zrotation Xrotation Yrotation
                End Site
                {
                  OFFSET 0 0 0
                }
              }
              JOINT ThumbLeft
              {
                OFFSET 1.022918 -3.256055 -3.602007
                CHANNELS 3 Zrotation Xrotation Yrotation
                End Site
                {
                  OFFSET 0 0 0
                }
              }
            }
          }
        }
      }
      JOINT ShoulderRight
      {
        OFFSET 10.547625 -4.732521 -3.097636
        CHANNELS 3 Zrotation Xrotation Yrotation
        JOINT ElbowRight
        {
          OFFSET -17.892010 -20.265324 -6.857790
          CHANNELS 3 Zrotation Xrotation Yrotation
          JOINT WristRight
          {
            OFFSET -9.390700 -22.233353 0.426344
            CHANNELS 3 Zrotation Xrotation Yrotation
            JOINT HandRight
            {
              OFFSET -1.962934 -8.780163 1.232410
              CHANNELS 3 Zrotation Xrotation Yrotation
              JOINT HandTipRight
              {
                OFFSET -6.729229 -7.592671 -0.402217
                CHANNELS 3 Zrotation Xrotation Yrotation
                End Site
                {
                  OFFSET 0 0 0
                }
              }
              JOINT ThumbRight
              {
                OFFSET 7.158813 -2.266252 -0.998976
                CHANNELS 3 Zrotation Xrotation Yrotation
                End Site
                {
                  OFFSET 0 0 0
                }
              }
            }
          }
        }
      }
    }
  }
  JOINT HipLeft
  {
    OFFSET -6.810794 1.762835 -5.127348
    CHANNELS 3 Zrotation Xrotation Yrotation
    JOINT KneeLeft
    {
      OFFSET -0.063593 -45.624045 -0.460773
      CHANNELS 3 Zrotation Xrotation Yrotation
      JOINT AnkleLeft
      {
        OFFSET -2.105009 -30.301260 -1.289463
        CHANNELS 3 Zrotation Xrotation Yrotation
        JOINT FootLeft
        {
          OFFSET 6.828231 -4.219799 -1.063633
          CHANNELS 3 Zrotation Xrotation Yrotation
          End Site
          {
            OFFSET 0 0 0
          }
        }
      }
    }
  }
  JOINT HipRight
  {
    OFFSET 4.919991 0.855245 -1.133998
    CHANNELS 3 Zrotation Xrotation Yrotation
    JOINT KneeRight
    {
      OFFSET 10.816827 -47.302453 6.540021
      CHANNELS 3 Zrotation Xrotation Yrotation
      JOINT AnkleRight
      {
        OFFSET 1.665568 -29.948742 3.458932
        CHANNELS 3 Zrotation Xrotation Yrotation
        JOINT FootRight
        {
          OFFSET 7.476431 7.946255 -3.414327
          CHANNELS 3 Zrotation Xrotation Yrotation
          End Site
          {
            OFFSET 0 0 0
          }
        }
      }
    }
  }
}
MOTION
Frames: 8
Frame Time: 0.033333
73.376369 80.137477 239.371229 -0.392496 -0.877684 -19.399595 0.396084 0.048752 19.390307 0.186528 -0.037769 -0.000364 -0.183932 1.001006 0.003297 0.000000 0.000000 0.000000 -1.421908 -0.655824 0.427212 1.196991 0.130522 0.008688 -3.855278 -1.213480 -0.322255 8.319511 -12.142285 -0.205380 0.000000 0.000000 0.000000 0.000000 0.000000 0.000000 2.262348 -1.399998 1.338579 -3.515531 1.501091 -0.845719 -6.914714 2.187096 -1.550374 9.710983 -1.515493 1.909501 0.000000 0.000000 0.000000 0.000000 0.000000 0.000000 0.078712 0.958214 19.395930 -0.000000 0.000000 0.000000 -26.369005 13.219233 45.660011 0.000000 0.000000 0.000000 0.078712 0.958214 19.395930 0.394553 1.580195 0.128194 41.402177 13.026300 0.766403 0.000000 0.000000 0.000000
73.302625 80.233969 239.362195 -0.477565 -0.884616 -19.564318 0.449244 0.053145 19.552741 0.203119 -0.038343 -0.001094 -0.166811 1.023290 0.004751 0.000000 0.000000 0.000000 -1.390203 -0.955210 0.471664 1.057140 0.435506 -0.048863 -4.376032 -0.977531 -0.340926 6.080409 -12.670777 0.269879 0.000000 0.000000 0.000000 0.000000 0.000000 0.000000 2.316162 -1.362784 1.312949 -3.691238 1.511618 -0.827234 -7.246309 2.158302 -1.592472 10.167614 -1.794907 2.254481 0.000000 0.000000 0.000000 0.000000 0.000000 0.000000 0.153806 0.993449 19.559297 -0.000000 0.000000 0.000000 -26.004938 15.816750 50.943919 0.000000 0.000000 0.000000 0.153806 0.993449 19.559297 1.059238 1.475123 0.190931 37.926403 9.601437 6.126655 0.000000 0.000000 0.000000
73.224194 80.358828 239.338134 -0.558572 -0.871384 -19.866189 0.497763 0.044099 19.852445 0.222841 -0.039959 -0.001768 -0.085727 0.190249 -0.073820 0.000000 0.000000 0.000000 -1.288555 -1.075737 0.480875 0.735265 0.450086 -0.045627 -4.575590 -0.881209 -0.351068 3.074667 -13.045915 0.754667 0.000000 0.000000 0.000000 0.000000 0.000000 0.000000 2.300741 -1.292367 1.274370 -3.656902 1.415010 -0.776419 -7.470137 2.123866 -1.616189 10.291802 -1.982111 2.508029 0.000000 0.000000 0.000000 0.000000 0.000000 0.000000 0.229266 1.009322 19.859922 0.518614 -0.951903 0.048401 -27.117065 15.256694 48.917937 0.000000 0.000000 0.000000 0.229266 1.009322 19.859922 1.585693 1.326424 0.238701 31.789231 4.674607 11.139537 0.000000 0.000000 0.000000
73.171041 80.500966 239.306396 -0.596109 -0.854911 -20.257795 0.509510 0.027282 20.242831 0.236542 -0.045952 -0.002534 -0.061676 0.211688 -0.072227 0.000000 0.000000 0.000000 -1.094762 -1.159288 0.471771 0.188835 0.369166 -0.018063 -4.052386 -0.658261 -0.347525 2.371147 -12.131756 0.808850 0.000000 0.000000 0.000000 0.000000 0.000000 0.000000 2.214730 -1.180866 1.218728 -3.456944 1.218474 -0.692567 -7.655217 1.971027 -1.615067 10.373155 -1.764144 2.461598 0.000000 0.000000 0.000000 0.000000 0.000000 0.000000 0.263287 1.008404 20.251030 0.849040 -0.933239 0.035647 -27.464194 17.247690 53.377697 0.000000 0.000000 0.000000 0.263287 1.008404 20.251030 2.051362 1.282246 0.285388 26.912067 1.106680 13.463218 0.000000 0.000000 0.000000
73.140975 80.685298 239.252845 -0.601468 -0.809656 -20.649510 0.499805 -0.013374 20.634253 0.243458 -0.059547 -0.003495 -0.105223 1.057956 0.009203 0.000000 0.000000 0.000000 -0.817187 -1.101085 0.430551 -0.527573 0.126313 0.037606 -3.036302 -0.820848 -0.312818 2.310615 -9.793911 0.645274 0.000000 0.000000 0.000000 0.000000 0.000000 0.000000 2.088797 -1.036850 1.142371 -3.173530 0.976402 -0.588258 -7.902939 1.851058 -1.621848 10.099359 -1.670298 2.518417 0.000000 0.000000 0.000000 0.000000 0.000000 0.000000 0.277357 0.969723 20.642913 1.112363 -0.773842 0.013947 -27.751326 20.345527 60.110570 0.000000 0.000000 0.000000 0.277357 0.969723 20.642913 2.499221 1.491202 0.339197 24.595247 0.080534 13.293392 0.000000 0.000000 0.000000
73.129958 80.895397 239.196790 -0.571720 -0.759348 -20.863184 0.482959 -0.053341 20.848868 0.245869 -0.071850 -0.003310 -0.106687 1.053028 0.009032 0.000000 0.000000 0.000000 -0.551829 -0.997359 0.377254 -1.286233 -0.185771 0.099524 -1.780900 -0.972148 -0.275159 3.183143 -9.558276 0.332736 0.000000 0.000000 0.000000 0.000000 0.000000 0.000000 1.870897 -0.873817 1.060263 -2.707063 0.614629 -0.444729 -7.871903 1.755865 -1.600308 10.220299 -1.325828 2.308449 0.000000 0.000000 0.000000 0.000000 0.000000 0.000000 0.263849 0.913150 20.857292 1.247898 -0.297085 -0.029258 -27.773641 21.022634 62.042471 0.000000 0.000000 0.000000 0.263849 0.913150 20.857292 2.820776 1.814978 0.382282 21.096587 -0.661305 11.667039 0.000000 0.000000 0.000000
73.125338 81.061638 239.137472 -0.531686 -0.697929 -20.856217 0.477521 -0.088811 20.843593 0.244053 -0.076678 -0.002073 -0.127176 1.027595 0.007331 0.000000 0.000000 0.000000 -0.239456 -0.844903 0.302273 -2.165924 -0.666215 0.196012 0.211085 -0.974106 -0.251065 7.615478 -8.501857 -0.811195 0.000000 0.000000 0.000000 0.000000 0.000000 0.000000 1.727967 -0.748667 0.962195 -2.387356 0.231840 -0.263366 -8.040915 1.888793 -1.644057 10.527274 -1.457749 2.476093 0.000000 0.000000 0.000000 0.000000 0.000000 0.000000 0.248406 0.841474 20.851155 1.337572 -0.038369 -0.053854 -27.904677 20.872269 62.242069 0.000000 0.000000 0.000000 0.248406 0.841474 20.851155 2.880366 2.029334 0.394838 18.709418 -0.353376 9.437528 0.000000 0.000000 0.000000
73.129805 81.160915 239.080425 -0.478500 -0.634397 -20.682295 0.477038 -0.121789 20.671974 0.230805 -0.071875 -0.000526 -0.155723 0.988683 0.004888 0.000000 0.000000 0.000000 0.018792 -0.656084 0.224894 -2.936980 -1.199532 0.290536 1.602589 -0.547396 -0.285188 9.277272 -9.324352 -1.174417 0.000000 0.000000 0.000000 0.000000 0.000000 0.000000 1.628207 -0.668721 0.875922 -2.103151 -0.159706 -0.071886 -7.762792 2.226792 -1.677161 9.711268 -1.787698 2.661707 0.000000 0.000000 0.000000 0.000000 0.000000 0.000000 0.672378 -0.099581 20.675741 1.062615 1.259286 -0.092698 -27.617968 19.528398 59.927506 0.000000 0.000000 0.000000 0.223630 0.762499 20.678158 2.901080 2.137945 0.400199 20.005607 1.959952 7.013103 0.000000 0.000000 0.000000
